HIERARCHY
ROOT Pelvis
{
	OFFSET 0.000000 0.000000 0.000000
	CHANNELS 6 Xposition Yposition Zposition Xrotation Yrotation Zrotation
	JOINT LeftUpLeg_virtual
	{
		OFFSET 0.000000 0.000000 0.000000
		CHANNELS 3 Xrotation Yrotation Zrotation
		JOINT LeftUpLeg
		{
			OFFSET 18.735201 -5.666702 -4.541200
			CHANNELS 3 Xrotation Yrotation Zrotation
			JOINT LeftLeg
			{
				OFFSET -0.021200 -31.938179 0.493100
				CHANNELS 3 Xrotation Yrotation Zrotation
				JOINT LeftFoot
				{
					OFFSET 0.021200 -31.938179 -4.336299
					CHANNELS 3 Xrotation Yrotation Zrotation
					JOINT LeftToeBase
					{
						OFFSET 0.943001 -26.722000 15.023500
						CHANNELS 3 Xrotation Yrotation Zrotation
						End Site
						{
							OFFSET 0 0 0
						}
					}
				}
			}
		}
	}
	JOINT RightUpLeg_virtual
	{
		OFFSET 0.000000 0.000000 0.000000
		CHANNELS 3 Xrotation Yrotation Zrotation
		JOINT RightUpLeg
		{
			OFFSET -18.735201 -5.666702 -4.541200
			CHANNELS 3 Xrotation Yrotation Zrotation
			JOINT RightLeg
			{
				OFFSET 0.018946 -31.938133 0.493100
				CHANNELS 3 Xrotation Yrotation Zrotation
				JOINT RightFoot
				{
					OFFSET -0.018946 -31.938126 -4.336299
					CHANNELS 3 Xrotation Yrotation Zrotation
					JOINT RightToeBase
					{
						OFFSET -0.943001 -26.722004 15.023500
						CHANNELS 3 Xrotation Yrotation Zrotation
						End Site
						{
							OFFSET 0 0 0
						}
					}
				}
			}
		}
	}
	JOINT Hips_virtual
	{
		OFFSET 0.000000 0.000000 0.000000
		CHANNELS 3 Xrotation Yrotation Zrotation
		JOINT Hips
		{
			OFFSET -0.000000 -0.000000 -0.000000
			CHANNELS 3 Xrotation Yrotation Zrotation
			JOINT Spine
			{
				OFFSET 0.000000 10.199997 -0.299500
				CHANNELS 3 Xrotation Yrotation Zrotation
				JOINT Spine1
				{
					OFFSET 0.000000 11.900002 -1.516600
					CHANNELS 3 Xrotation Yrotation Zrotation
					JOINT Spine2
					{
						OFFSET 0.000000 13.600006 -2.842500
						CHANNELS 3 Xrotation Yrotation Zrotation
						JOINT Neck_virtual
						{
							OFFSET 0.000000 0.000000 0.000000
							CHANNELS 3 Xrotation Yrotation Zrotation
							JOINT Neck
							{
								OFFSET 0.000000 9.624100 -2.890100
								CHANNELS 3 Xrotation Yrotation Zrotation
								JOINT Head
								{
									OFFSET 0.000000 14.068802 -1.351900
									CHANNELS 3 Xrotation Yrotation Zrotation
									End Site
									{
										OFFSET 0 0 0
									}
								}
							}
						}
						JOINT LeftShoulder_virtual
						{
							OFFSET 0.000000 0.000000 0.000000
							CHANNELS 3 Xrotation Yrotation Zrotation
							JOINT LeftShoulder
							{
								OFFSET 15.263000 10.923401 -0.547700
								CHANNELS 3 Xrotation Yrotation Zrotation
								JOINT LeftArm
								{
									OFFSET 25.438599 -2.830597 -13.032500
									CHANNELS 3 Xrotation Yrotation Zrotation
									JOINT LeftForeArm
									{
										OFFSET 29.960503 0.000000 0.000000
										CHANNELS 3 Xrotation Yrotation Zrotation
										JOINT LeftHand
										{
											OFFSET 27.849251 0.000000 0.000000
											CHANNELS 3 Xrotation Yrotation Zrotation
											End Site
											{
												OFFSET 0 0 0
											}
										}
									}
								}
							}
						}
						JOINT RightShoulder_virtual
						{
							OFFSET 0.000000 0.000000 0.000000
							CHANNELS 3 Xrotation Yrotation Zrotation
							JOINT RightShoulder
							{
								OFFSET -15.263000 10.923401 -0.547700
								CHANNELS 3 Xrotation Yrotation Zrotation
								JOINT RightArm
								{
									OFFSET -25.438599 -2.830597 -13.032500
									CHANNELS 3 Xrotation Yrotation Zrotation
									JOINT RightForeArm
									{
										OFFSET -29.960503 0.000000 0.000000
										CHANNELS 3 Xrotation Yrotation Zrotation
										JOINT RightHand
										{
											OFFSET -27.849251 0.000000 0.000000
											CHANNELS 3 Xrotation Yrotation Zrotation
											End Site
											{
												OFFSET 0 0 0
											}
										}
									}
								}
							}
						}
					}
				}
			}
		}
	}
}
MOTION
Frames: 4
Frame Time: 0.03333333
-3.743199 75.337402 2.151251 0.000000 0.000000 0.000000 -4.314102 -74.812209 -3.407495 -41.533889 6.985798 56.855229 44.152737 -5.073538 -8.334148 6.798536 -0.976910 -27.676837 0.000000 0.000000 0.000000 -4.314102 -74.812209 -3.407495 -42.499377 6.828423 -31.832254 66.910719 13.210820 -6.931398 -19.830028 -7.596990 28.259332 0.000000 0.000000 0.000000 -4.314102 -74.812209 -3.407495 0.000000 0.000000 0.000000 2.953925 -0.380318 -1.451622 5.893830 -0.904742 -3.151096 0.000000 0.000000 0.000000 5.893816 -0.904596 -3.151109 -0.224628 4.882790 1.375119 0.000000 0.000000 0.000000 5.893816 -0.904596 -3.151109 0.279789 -7.010245 -19.556597 -39.504062 -20.309100 -2.427264 -5.614202 -32.071566 -2.800581 0.000000 0.000000 0.000000 5.893816 -0.904596 -3.151109 0.636236 13.855924 9.110356 35.455266 67.114402 -18.850894 0.649740 83.885317 -11.767032 0.000000 0.000000 0.000000 
-3.743148 75.337036 2.151447 0.000000 0.000000 0.000000 -4.314095 -74.812168 -3.407527 -41.358131 6.850167 56.734748 44.181789 -4.869872 -8.315799 6.775331 -0.968365 -27.777918 0.000000 0.000000 0.000000 -4.314095 -74.812168 -3.407527 -42.480300 6.852824 -31.814304 66.906546 13.178487 -6.933214 -19.831248 -7.603359 28.280484 0.000000 0.000000 0.000000 -4.314095 -74.812168 -3.407527 0.000000 0.000001 0.000000 2.953926 -0.380334 -1.451583 5.893828 -0.904734 -3.151098 0.000000 0.000000 0.000000 5.893813 -0.904587 -3.151109 -0.230071 4.887773 1.374442 0.000000 0.000000 0.000000 5.893813 -0.904587 -3.151109 0.279791 -7.010248 -19.556602 -39.570042 -20.279810 -2.378965 -5.525882 -32.234183 -2.805731 0.000000 0.000000 0.000000 5.893813 -0.904587 -3.151109 0.636235 13.855893 9.110395 35.360999 66.921592 -19.125240 1.039503 84.331089 -12.064177 0.000000 0.000000 0.000000 
-3.727270 75.530060 2.119276 0.000000 0.000000 0.000000 -5.314372 -75.245728 -4.413008 -40.524834 7.207518 56.708312 43.769532 -4.348225 -8.210780 6.776926 -0.960553 -28.044975 0.000000 0.000000 0.000000 -5.314372 -75.245728 -4.413008 -42.423483 6.761141 -31.599508 66.435529 13.426694 -6.897167 -19.431048 -7.431126 28.062686 0.000000 0.000000 0.000000 -5.314372 -75.245728 -4.413008 0.000000 -0.000001 0.000000 2.901261 -0.340271 -1.407387 5.790269 -0.823363 -3.057949 0.000000 0.000000 0.000000 5.790279 -0.823168 -3.058012 -0.246226 4.902097 1.372437 0.000000 0.000000 0.000000 5.790279 -0.823168 -3.058012 0.268780 -7.020029 -19.607416 -39.486884 -20.023364 -2.512436 -5.275126 -32.657142 -2.924885 0.000000 0.000000 0.000000 5.790279 -0.823168 -3.058012 0.634731 13.830915 9.149994 35.145080 66.734800 -18.517000 1.797525 83.923976 -12.613829 0.000000 0.000000 0.000000 
-3.703153 75.763168 2.061058 0.000000 0.000000 0.000000 -6.754418 -75.844620 -5.861019 -39.471154 7.723635 56.744788 43.229309 -3.720106 -8.094123 6.791961 -0.954049 -28.378970 0.000000 0.000000 0.000000 -6.754418 -75.844620 -5.861019 -42.387894 6.688213 -31.278134 65.875692 13.751848 -6.852247 -18.912531 -7.209260 27.773456 0.000000 0.000000 0.000000 -6.754418 -75.844620 -5.861019 0.000000 -0.000001 0.000000 2.821653 -0.284030 -1.355112 5.633337 -0.706291 -2.949007 0.000000 0.000000 0.000000 5.633325 -0.706331 -2.949011 -0.270365 4.925126 1.369496 0.000000 0.000000 0.000000 5.633325 -0.706331 -2.949011 0.235411 -7.052436 -19.747766 -38.990896 -19.413546 -3.073296 -4.884510 -33.341336 -3.229814 0.000000 0.000000 0.000000 5.633325 -0.706331 -2.949011 0.630146 13.759750 9.265011 34.557923 66.432086 -17.348050 2.853551 83.375341 -13.338980 0.000000 0.000000 0.000000 
